<svg xmlns="http://www.w3.org/2000/svg" width="2348" height="3225" viewBox="0 0 2348 3225" version="1.1"><path d="" stroke="none" fill="#386c54" fill-rule="evenodd"/><path d="M 1218.500 0.699 C 1153.939 1.587, 1077.350 8.112, 997.246 19.551 C 931.514 28.938, 872.106 39.605, 749.431 64.047 C 705.394 72.821, 667.706 80, 665.681 80 C 662.638 80, 662 80.355, 662 82.047 C 662 83.173, 660.162 90.035, 657.916 97.297 C 652.424 115.050, 652.210 119.836, 655.447 152.500 C 671.004 309.518, 703.936 472.265, 756.521 652 C 772.463 706.488, 774.522 711.657, 783.530 719.803 C 789.363 725.077, 806.721 734.703, 807.990 733.367 C 808.443 732.890, 810.483 727.582, 812.523 721.571 C 816.689 709.300, 816.721 706.580, 812.882 691.532 C 810.338 681.560, 793.547 628.914, 769.496 555.500 C 732.599 442.876, 720.186 402.025, 705.988 346.500 C 692.484 293.687, 686.420 259.083, 674.006 164 C 670.667 138.425, 666.854 109.850, 665.533 100.500 C 664.070 90.146, 663.490 83.135, 664.050 82.565 C 664.555 82.051, 673.864 81.268, 684.735 80.825 C 717.696 79.482, 734.472 78.152, 757.500 75.057 C 925.382 52.494, 1076.718 46.899, 1204 58.552 C 1223.246 60.314, 1233.933 61.666, 1266.010 66.393 C 1293.112 70.388, 1316.259 72.465, 1325.952 71.771 C 1334.692 71.146, 1339.383 68.573, 1354.041 56.367 C 1360.343 51.118, 1366.469 46.076, 1367.654 45.162 C 1369.808 43.500, 1369.808 43.500, 1362.427 33 C 1352.997 19.583, 1347.662 13.394, 1343.812 11.403 C 1328.514 3.492, 1285.102 -0.216, 1218.500 0.699 M 1444.775 39.508 C 1430.500 46.108, 1419.522 52.653, 1389.128 72.683 C 1290.394 137.753, 1205.115 208.535, 1111.465 303.146 C 1070.937 344.090, 1016.786 402.966, 1003.258 420.797 C 996.138 430.181, 991.998 439.680, 992.010 446.605 C 992.020 452.813, 995.097 461.189, 998.359 463.887 C 1000.514 465.670, 1008.345 464.825, 1014.371 462.160 C 1020.863 459.288, 1024.867 455.267, 1052.862 423.500 C 1209.814 245.404, 1322.656 136.177, 1444.750 44.170 C 1455.140 36.340, 1458.153 33.798, 1456.750 34.044 C 1456.612 34.068, 1451.224 36.527, 1444.775 39.508 M 1497.617 46.019 C 1495.481 47.621, 1493.519 49.148, 1493.256 49.411 C 1492.039 50.627, 1505.862 70.612, 1532.037 105.483 C 1614.163 214.893, 1663.946 288.576, 1707.715 365.500 C 1751.540 442.522, 1786.054 519.860, 1810.135 595 C 1813.344 605.014, 1813.712 605.642, 1818.076 608.558 C 1824.147 612.616, 1833.119 615.346, 1840.500 615.381 C 1845.306 615.404, 1847.694 614.789, 1852.500 612.289 C 1873.198 601.521, 1879.902 577.970, 1869.997 550.828 C 1863.711 533.604, 1817.769 455.199, 1792.165 418 C 1770.011 385.812, 1709.828 307.666, 1573.014 133.437 C 1535.466 85.622, 1504.015 45.736, 1503.123 44.802 C 1501.601 43.210, 1501.257 43.286, 1497.617 46.019 M 583.935 186.880 C 576.986 189.599, 573.656 192.492, 563.076 205 C 544.448 227.022, 532.732 243.608, 525.194 258.630 C 514.064 280.807, 321.374 740.178, 322.462 741.938 C 323.328 743.340, 335.199 747.202, 335.998 746.343 C 336.430 745.879, 343.869 729.975, 352.530 711 C 456.963 482.209, 524.314 363.599, 612.596 253 C 623.528 239.305, 625.110 235.435, 625.137 222.315 C 625.169 206.567, 620.932 197.200, 610.644 190.277 C 602.366 184.706, 592.648 183.470, 583.935 186.880 M 1314.280 489.677 C 1301.867 490.106, 1303.115 489.168, 1300.501 500.034 C 1299.390 504.653, 1314.726 520.806, 1329.863 530.959 C 1345.947 541.749, 1355.780 544.435, 1412.500 553.531 C 1499.118 567.422, 1541.485 574.746, 1586.500 583.608 C 1707.647 607.458, 1801.559 636.396, 1885.997 675.896 C 1896.449 680.785, 1904.986 684.496, 1904.970 684.143 C 1904.881 682.255, 1883.739 669.761, 1864.073 659.974 C 1712.409 584.503, 1548.331 529.330, 1373.500 495.013 C 1346.080 489.631, 1337.629 488.869, 1314.280 489.677 M 1097.919 641.952 C 1074.749 646.171, 1054.143 656.932, 1037.688 673.408 C 1000.642 710.500, 991.461 767.922, 1014.969 815.500 C 1021.858 829.444, 1027.962 837.860, 1038.319 847.698 C 1071.073 878.811, 1119.742 887.499, 1161.035 869.604 C 1179.572 861.571, 1200.189 844.553, 1211.821 827.684 C 1218.503 817.994, 1225.141 804.043, 1228.347 792.954 C 1244.140 738.317, 1214.232 676.535, 1159.595 650.931 C 1145.641 644.392, 1134.081 641.816, 1117 641.438 C 1109.025 641.262, 1100.439 641.493, 1097.919 641.952 M 1932.139 711.108 C 1925.568 726.211, 1886.738 810.824, 1870.220 846.032 C 1785.465 1026.694, 1709.555 1159.679, 1629.850 1267.133 C 1623.880 1275.181, 1618.274 1283.494, 1617.392 1285.605 C 1615.593 1289.909, 1615.302 1299.573, 1616.479 1315.833 C 1617.228 1326.166, 1617.228 1326.166, 1638.864 1325.788 C 1658.278 1325.448, 1661.069 1325.184, 1666.045 1323.210 C 1673.509 1320.248, 1681.786 1312.634, 1688.484 1302.568 C 1695.316 1292.299, 1745.406 1190.169, 1768.215 1140 C 1794.538 1082.104, 1825.279 1003.300, 1894.999 815 C 1905.893 785.575, 1919.352 749.389, 1924.907 734.587 C 1930.462 719.785, 1934.792 707.458, 1934.529 707.195 C 1934.266 706.932, 1933.190 708.693, 1932.139 711.108 M 1429.133 805.350 C 1421.974 821.258, 1421.427 824.038, 1423.453 834.188 C 1426 846.942, 1429.894 859.222, 1441.906 892.375 C 1505.326 1067.418, 1542.482 1200.685, 1563.939 1330.070 C 1572.409 1381.142, 1576.876 1417.914, 1575.614 1426.177 C 1574.137 1435.844, 1567.957 1440.919, 1557.412 1441.125 C 1547.325 1441.322, 1513.813 1443.895, 1454.500 1449.026 C 1303.002 1462.130, 1261.069 1464.808, 1193.500 1465.690 C 1134.780 1466.456, 1109.678 1465.364, 1005.500 1457.506 C 930.371 1451.840, 914.237 1450.946, 905.346 1451.961 C 886.361 1454.126, 876.711 1461.710, 875.279 1475.590 C 874.474 1483.385, 877.932 1489.847, 887.954 1499.275 C 896.632 1507.439, 909.780 1514.820, 920.387 1517.484 C 943.571 1523.305, 962.338 1522.481, 1055 1511.572 C 1212.149 1493.071, 1371.241 1473.964, 1488.809 1459.470 C 1513.179 1456.465, 1534.104 1453.483, 1535.309 1452.843 C 1536.514 1452.203, 1540.016 1449.496, 1543.091 1446.828 C 1548.682 1441.977, 1548.682 1441.977, 1553.091 1443.612 C 1555.516 1444.511, 1560.726 1445.304, 1564.669 1445.373 C 1581.014 1445.662, 1583.633 1437.491, 1581.073 1394.192 C 1573.665 1268.858, 1554.915 1146.645, 1521.519 1006 C 1510.944 961.462, 1502.989 931.654, 1494.330 904.111 C 1487.301 881.751, 1465.545 821.200, 1461.373 812.383 C 1459.614 808.665, 1454.542 804.943, 1442.825 798.770 C 1434.150 794.200, 1434.150 794.200, 1429.133 805.350 M 308.497 816.234 C 317.764 826.594, 321.326 828.684, 377 856.426 C 455.438 895.512, 481.913 907.466, 549.500 934.314 C 619.813 962.245, 678.337 982.417, 741.500 1000.493 C 800.889 1017.489, 880.508 1035, 898.397 1035 C 906.462 1035, 935.066 1031.351, 936.125 1030.187 C 937.071 1029.148, 938.929 1010.599, 938.165 1009.827 C 937.799 1009.457, 922.650 1004.370, 904.500 998.524 C 867.528 986.613, 840.607 979.717, 736.500 955.487 C 619.979 928.368, 565.701 914.797, 513 899.604 C 464.712 885.684, 439.311 875.465, 371 842.478 C 339.696 827.361, 310.322 813.505, 306.143 811.883 C 304.301 811.168, 304.814 812.118, 308.497 816.234 M 384.963 903.684 C 381.958 907.924, 377.085 914.792, 374.133 918.946 C 362.512 935.300, 359.783 946.342, 363.962 960.102 C 366.776 969.364, 371.593 978.949, 384.769 1001.500 C 457.950 1126.753, 550.836 1251.746, 679.422 1398 C 710.004 1432.785, 747.310 1474.024, 747.774 1473.559 C 748.696 1472.637, 740.053 1459.714, 723.991 1438 C 617.225 1293.664, 556.291 1200.700, 506.570 1106.290 C 476.903 1049.958, 449.129 985.537, 431.544 932.267 C 427.151 918.961, 426.549 917.773, 422.289 914.023 C 418.781 910.935, 404.813 903.005, 390.963 896.238 C 390.668 896.094, 387.968 899.444, 384.963 903.684 M 1221.296 1047.234 C 1215.945 1048.953, 1193.376 1073.092, 1164.015 1108.500 C 1131.054 1148.248, 1096.448 1188.720, 1069.956 1218.500 C 968.450 1332.607, 876.510 1418.775, 783.640 1486.842 C 773.614 1494.190, 770.433 1496.993, 772.140 1496.976 C 776.604 1496.931, 785.542 1492.391, 804.500 1480.537 C 955.395 1386.187, 1091.237 1263.131, 1217.401 1106.500 C 1238.310 1080.542, 1242.429 1073.358, 1242.345 1062.997 C 1242.278 1054.680, 1239.476 1048.710, 1234.887 1047.110 C 1231.066 1045.779, 1225.672 1045.828, 1221.296 1047.234 M 255.315 1919.810 C 242.129 1921.352, 242.129 1921.352, 237.437 1933.926 C 230.903 1951.434, 92.118 2293.436, 84.826 2310 C 68.850 2346.286, 59.511 2356.498, 35.500 2363.938 C 29.743 2365.722, 12.388 2368.971, 8.494 2368.994 C 7.846 2368.998, 7.726 2372.109, 8.157 2377.750 C 8.525 2382.563, 8.865 2387.063, 8.913 2387.750 C 8.982 2388.739, 25.790 2389, 89.384 2389 C 169.767 2389, 169.767 2389, 170.220 2378.750 C 170.468 2373.113, 170.633 2368.429, 170.586 2368.342 C 170.539 2368.256, 166.021 2367.652, 160.546 2367.001 C 139.962 2364.553, 125.191 2358.216, 121.023 2350.045 C 118.167 2344.446, 118.368 2336.112, 121.610 2325.802 C 123.045 2321.236, 132.301 2297.137, 142.178 2272.250 C 160.136 2227, 160.136 2227, 227.367 2227 C 294.598 2227, 294.598 2227, 313.760 2275.284 C 324.300 2301.841, 333.608 2326.478, 334.447 2330.034 C 336.233 2337.614, 336.435 2345.719, 334.936 2349.685 C 331.633 2358.427, 320.088 2364.184, 299.019 2367.594 C 293.805 2368.438, 289.373 2369.294, 289.171 2369.496 C 288.969 2369.698, 289.126 2374.169, 289.520 2379.432 C 290.238 2389, 290.238 2389, 394.969 2389 C 499.699 2389, 499.699 2389, 500.365 2378.848 C 500.731 2373.265, 500.898 2368.565, 500.737 2368.404 C 500.577 2368.243, 496.407 2367.615, 491.472 2367.007 C 473.618 2364.810, 458.594 2359.781, 451.196 2353.525 C 444.826 2348.139, 436.216 2333.229, 427.217 2312 C 425.001 2306.775, 395.302 2233.200, 361.218 2148.500 C 322.164 2051.452, 296.822 1987.104, 292.691 1974.500 C 286.462 1955.496, 278.852 1929.059, 277.433 1921.496 C 276.804 1918.141, 276.611 1918.005, 272.639 1918.134 C 270.362 1918.208, 262.567 1918.962, 255.315 1919.810 M 2086.315 1919.810 C 2073.129 1921.352, 2073.129 1921.352, 2068.437 1933.926 C 2061.903 1951.434, 1923.118 2293.436, 1915.826 2310 C 1899.850 2346.286, 1890.511 2356.498, 1866.500 2363.938 C 1860.743 2365.722, 1843.388 2368.971, 1839.494 2368.994 C 1838.846 2368.998, 1838.726 2372.109, 1839.157 2377.750 C 1839.525 2382.563, 1839.865 2387.063, 1839.913 2387.750 C 1839.982 2388.739, 1856.790 2389, 1920.384 2389 C 2000.767 2389, 2000.767 2389, 2001.220 2378.750 C 2001.468 2373.113, 2001.633 2368.429, 2001.586 2368.342 C 2001.539 2368.256, 1997.021 2367.652, 1991.546 2367.001 C 1970.962 2364.553, 1956.191 2358.216, 1952.023 2350.045 C 1949.167 2344.446, 1949.368 2336.112, 1952.610 2325.802 C 1954.045 2321.236, 1963.301 2297.137, 1973.178 2272.250 C 1991.136 2227, 1991.136 2227, 2058.367 2227 C 2125.598 2227, 2125.598 2227, 2144.760 2275.284 C 2155.300 2301.841, 2164.608 2326.478, 2165.447 2330.034 C 2167.233 2337.614, 2167.435 2345.719, 2165.936 2349.685 C 2162.633 2358.427, 2151.088 2364.184, 2130.019 2367.594 C 2124.805 2368.438, 2120.373 2369.294, 2120.171 2369.496 C 2119.969 2369.698, 2120.126 2374.169, 2120.520 2379.432 C 2121.238 2389, 2121.238 2389, 2225.969 2389 C 2330.699 2389, 2330.699 2389, 2331.365 2378.848 C 2331.731 2373.265, 2331.898 2368.565, 2331.737 2368.404 C 2331.577 2368.243, 2327.407 2367.615, 2322.472 2367.007 C 2304.618 2364.810, 2289.594 2359.781, 2282.196 2353.525 C 2275.826 2348.139, 2267.216 2333.229, 2258.217 2312 C 2256.001 2306.775, 2226.302 2233.200, 2192.218 2148.500 C 2153.164 2051.452, 2127.822 1987.104, 2123.691 1974.500 C 2117.462 1955.496, 2109.852 1929.059, 2108.433 1921.496 C 2107.804 1918.141, 2107.611 1918.005, 2103.639 1918.134 C 2101.362 1918.208, 2093.567 1918.962, 2086.315 1919.810 M 1548.500 1925.994 C 1542.450 1926.447, 1527.375 1927.589, 1515 1928.532 C 1495.859 1929.990, 1484.796 1930.145, 1440.896 1929.565 C 1389.292 1928.884, 1389.292 1928.884, 1388.655 1934.192 C 1388.304 1937.111, 1388.013 1941.827, 1388.009 1944.670 C 1388 1949.841, 1388 1949.841, 1394.750 1950.423 C 1424.764 1953.012, 1434.618 1956.212, 1440.741 1965.357 C 1448.019 1976.230, 1447.456 1961.951, 1447.802 2144.500 C 1448.017 2258.011, 1447.774 2312.453, 1447.011 2321.342 C 1445.734 2336.223, 1442.506 2347.749, 1438.134 2353.034 C 1432.314 2360.069, 1419.266 2364.958, 1400.289 2367.212 C 1390 2368.434, 1390 2368.434, 1390.011 2374.967 C 1390.017 2378.560, 1390.301 2383.188, 1390.642 2385.250 C 1391.262 2389, 1391.262 2389, 1496.131 2389 C 1601 2389, 1601 2389, 1601.009 2383.750 C 1601.013 2380.863, 1601.293 2376.210, 1601.629 2373.411 C 1602.240 2368.322, 1602.240 2368.322, 1588.364 2367.691 C 1572.456 2366.967, 1560.927 2365.024, 1555.195 2362.099 C 1549.953 2359.425, 1544.554 2352.989, 1541.758 2346.079 C 1539.500 2340.500, 1539.500 2340.500, 1539.222 2259.833 C 1538.943 2179.165, 1538.943 2179.165, 1552.722 2179.665 C 1565.370 2180.124, 1567.008 2180.407, 1572.697 2183.119 C 1576.398 2184.883, 1580.427 2187.822, 1582.697 2190.413 C 1591.627 2200.604, 1648.129 2301.009, 1680.242 2363.750 C 1693.165 2389, 1693.165 2389, 1764.083 2389 C 1835 2389, 1835 2389, 1835.009 2383.750 C 1835.013 2380.863, 1835.293 2376.207, 1835.630 2373.405 C 1836.242 2368.310, 1836.242 2368.310, 1829.371 2367.656 C 1810.778 2365.888, 1792.311 2358.569, 1783.393 2349.435 C 1773.858 2339.668, 1749.167 2300.500, 1719.766 2248.500 C 1673.741 2167.098, 1671.871 2163.569, 1674.272 2162.619 C 1675.498 2162.135, 1681.133 2159.498, 1686.796 2156.760 C 1717.861 2141.742, 1743.837 2113.583, 1755.699 2082.066 C 1763.933 2060.191, 1765.667 2030.692, 1760.024 2008.500 C 1757.483 1998.507, 1750.734 1984.419, 1744.612 1976.323 C 1724.906 1950.267, 1688.314 1933.952, 1635 1927.452 C 1619.495 1925.562, 1566.249 1924.664, 1548.500 1925.994 M 562.462 1935.416 C 563.649 1947.757, 564.983 1980.124, 565.642 2012.595 C 566.423 2051.018, 564.683 2047.356, 581.903 2046.802 C 591.306 2046.500, 591.306 2046.500, 594.556 2031.500 C 600.101 2005.908, 606.057 1990.168, 613.997 1980.123 C 621.345 1970.827, 637.327 1965.408, 664.519 1962.992 C 671.926 1962.334, 700.970 1962.037, 740.599 1962.214 C 804.698 1962.500, 804.698 1962.500, 781.229 1998.500 C 717.064 2096.925, 560.029 2330.756, 531.127 2370.913 C 523.633 2381.326, 523.633 2381.326, 525.713 2384.913 C 527.793 2388.500, 527.793 2388.500, 724.759 2388.752 C 921.725 2389.005, 921.725 2389.005, 922.909 2378.252 C 925.917 2350.917, 932.841 2319.393, 943.929 2282.546 C 945.577 2277.071, 946.829 2272.499, 946.712 2272.385 C 946.596 2272.272, 940.739 2271.084, 933.699 2269.746 C 920.898 2267.312, 920.898 2267.312, 916.115 2277.406 C 894.478 2323.073, 860.983 2349.113, 816.370 2354.952 C 810.116 2355.771, 785.034 2356.023, 731.315 2355.807 C 655.131 2355.500, 655.131 2355.500, 710.125 2272 C 827.991 2093.037, 855.428 2051.928, 891.999 1999.500 C 906.132 1979.237, 925.468 1952.442, 934.633 1940.417 C 936.983 1937.333, 936.983 1937.333, 934.138 1933.518 C 931.293 1929.702, 931.293 1929.702, 746.585 1929.517 C 561.876 1929.331, 561.876 1929.331, 562.462 1935.416 M 981.617 1935.397 C 981.277 1938.640, 981 1943.217, 981 1945.567 C 981 1949.841, 981 1949.841, 987.750 1950.446 C 1002.369 1951.758, 1012.968 1953.173, 1017.882 1954.469 C 1029.006 1957.403, 1035.591 1963.414, 1040.218 1974.855 C 1042.500 1980.500, 1042.500 1980.500, 1042.500 2152.500 C 1042.500 2316.456, 1042.413 2324.870, 1040.647 2332.408 C 1035.156 2355.836, 1026.972 2361.783, 993.720 2366.510 C 988.099 2367.310, 981.521 2367.972, 979.103 2367.982 C 974.707 2368, 974.707 2368, 975.353 2375.651 C 975.709 2379.859, 976 2384.584, 976 2386.151 C 976 2389, 976 2389, 1157.915 2389 C 1339.829 2389, 1339.829 2389, 1340.505 2381.250 C 1342.707 2355.974, 1347.148 2330.832, 1354.886 2299.835 C 1360.545 2277.171, 1360.545 2277.171, 1351.781 2275.567 C 1332.826 2272.100, 1335.817 2270.198, 1324.842 2292.699 C 1306.708 2329.877, 1296.818 2340.935, 1274.806 2348.640 C 1258.302 2354.418, 1251.449 2355.199, 1212.759 2355.714 C 1174.644 2356.222, 1164.159 2355.528, 1154.322 2351.847 C 1146.903 2349.072, 1142.825 2345.229, 1139.548 2337.928 C 1134.270 2326.166, 1134.073 2322.785, 1134.035 2243.222 C 1134 2169.944, 1134 2169.944, 1140.250 2170.449 C 1143.688 2170.726, 1156.625 2171.204, 1169 2171.510 C 1204.747 2172.395, 1264.484 2175.591, 1283.093 2177.615 C 1288.685 2178.223, 1288.685 2178.223, 1289.290 2155.361 C 1289.887 2132.756, 1289.869 2132.475, 1287.697 2130.314 C 1285.500 2128.128, 1285.500 2128.128, 1211 2130.538 C 1170.025 2131.864, 1135.938 2132.960, 1135.250 2132.974 C 1134.260 2132.995, 1134 2116.241, 1134 2052.468 C 1134 1984.026, 1134.220 1971.410, 1135.464 1968.432 C 1138.124 1962.067, 1138.664 1962, 1187.744 1962 C 1242.379 1962, 1254.015 1963.223, 1269.660 1970.608 C 1277.771 1974.438, 1282.894 1979.571, 1287.813 1988.800 C 1291.906 1996.479, 1297.282 2012.821, 1300.052 2026 C 1301.265 2031.775, 1302.434 2037.123, 1302.649 2037.884 C 1302.970 2039.020, 1305.327 2039.138, 1315.762 2038.544 C 1322.759 2038.145, 1328.753 2037.653, 1329.081 2037.450 C 1329.410 2037.247, 1329.967 2025.250, 1330.320 2010.790 C 1331.037 1981.368, 1333.333 1947.008, 1335.558 1932.415 C 1336.029 1929.330, 1336.029 1929.330, 1159.131 1929.415 C 982.233 1929.500, 982.233 1929.500, 981.617 1935.397 M 1566.791 1958.060 C 1556.620 1959.588, 1547.936 1965.410, 1543.760 1973.500 C 1539.024 1982.675, 1539.024 1982.661, 1539.012 2068.143 C 1539.001 2140.763, 1539.157 2148.846, 1540.582 2149.393 C 1543.244 2150.414, 1576.373 2150.067, 1584.533 2148.932 C 1609.689 2145.433, 1629.391 2135.387, 1642.300 2119.476 C 1648.149 2112.266, 1655.142 2098.233, 1657.985 2088 C 1663.431 2068.400, 1664.764 2037.470, 1660.966 2018.832 C 1654.038 1984.836, 1634.290 1965.720, 1599.790 1959.612 C 1588.938 1957.691, 1573.943 1956.986, 1566.791 1958.060 M 226.188 2060 C 225.641 2061.375, 213.732 2091.412, 199.723 2126.750 C 174.254 2191, 174.254 2191, 227.194 2191 C 277.166 2191, 280.103 2190.902, 279.560 2189.250 C 279.243 2188.287, 267.329 2158.250, 253.084 2122.500 C 230.476 2065.764, 227.056 2057.818, 226.188 2060 M 2057.188 2060 C 2056.641 2061.375, 2044.732 2091.412, 2030.723 2126.750 C 2005.254 2191, 2005.254 2191, 2058.194 2191 C 2108.166 2191, 2111.103 2190.902, 2110.560 2189.250 C 2110.243 2188.287, 2098.329 2158.250, 2084.084 2122.500 C 2061.476 2065.764, 2058.056 2057.818, 2057.188 2060 M 966.552 2561.250 C 966.340 2561.938, 965.895 2573.300, 965.563 2586.500 C 964.752 2618.788, 961.696 2677.700, 960.413 2685.804 C 959.889 2689.108, 959.889 2689.108, 965.065 2688.804 C 970.241 2688.500, 970.241 2688.500, 975.517 2667.500 C 981.303 2644.472, 983.365 2638.067, 988.066 2628.518 C 994.708 2615.025, 1005.142 2605.745, 1018.337 2601.595 C 1030.482 2597.775, 1039.068 2596.919, 1071.276 2596.316 C 1103.053 2595.721, 1103.053 2595.721, 1102.737 2792.110 C 1102.389 3008.437, 1102.780 2995.284, 1096.342 3007.113 C 1090.206 3018.386, 1078.238 3023.755, 1053.750 3026.221 C 1042 3027.403, 1042 3027.403, 1042 3032.702 C 1042 3038, 1042 3038, 1119.500 3038 C 1197 3038, 1197 3038, 1197 3032.637 C 1197 3027.274, 1197 3027.274, 1187.635 3026.587 C 1175.371 3025.686, 1161.347 3022.766, 1154.769 3019.742 C 1139.572 3012.756, 1135.442 3003.389, 1133.942 2972.502 C 1133.462 2962.601, 1133.053 2873.791, 1133.034 2775.148 C 1133 2595.795, 1133 2595.795, 1169.250 2596.274 C 1206.870 2596.771, 1210.868 2597.177, 1222.905 2601.725 C 1233.173 2605.606, 1243.586 2616.183, 1250.295 2629.548 C 1254.703 2638.330, 1259.922 2655.572, 1263.237 2672.311 C 1265.001 2681.215, 1266.545 2688.663, 1266.668 2688.863 C 1266.791 2689.062, 1269.166 2688.680, 1271.946 2688.013 C 1277.938 2686.576, 1277.577 2689.432, 1275.545 2659.500 C 1273.696 2632.278, 1271.968 2594.458, 1271.707 2575.500 C 1271.500 2560.500, 1271.500 2560.500, 1266.500 2560.251 C 1261.500 2560.003, 1261.500 2560.003, 1257.500 2566.172 C 1254.690 2570.506, 1252.189 2573.033, 1249.093 2574.670 C 1244.685 2577, 1244.685 2577, 1118.908 2577 C 1032.782 2577, 992.243 2576.666, 990.315 2575.940 C 986.379 2574.459, 980.546 2568.538, 978.456 2563.902 C 976.759 2560.139, 976.522 2560, 971.817 2560 C 968.785 2560, 966.791 2560.473, 966.552 2561.250 M 720 2567.072 C 623.990 2573.618, 549.252 2659.490, 535.550 2779 C 533.761 2794.606, 533.485 2829.605, 535.029 2845.144 C 538.398 2879.061, 547.308 2910.945, 561.453 2939.710 C 591.214 3000.228, 641.338 3039.565, 699.500 3048.047 C 712.121 3049.888, 736.593 3049.422, 750 3047.086 C 791.738 3039.815, 828.216 3018.622, 857.727 2984.500 C 896.188 2940.030, 917.520 2880.470, 919.690 2811.500 C 922.620 2718.352, 886.581 2637.520, 823.102 2594.861 C 790.902 2573.222, 758.376 2564.455, 720 2567.072 M 1502 2567.072 C 1405.990 2573.618, 1331.252 2659.490, 1317.550 2779 C 1315.761 2794.606, 1315.485 2829.605, 1317.029 2845.144 C 1320.398 2879.061, 1329.308 2910.945, 1343.453 2939.710 C 1373.214 3000.228, 1423.338 3039.565, 1481.500 3048.047 C 1494.121 3049.888, 1518.593 3049.422, 1532 3047.086 C 1573.738 3039.815, 1610.216 3018.622, 1639.727 2984.500 C 1678.188 2940.030, 1699.520 2880.470, 1701.690 2811.500 C 1704.620 2718.352, 1668.581 2637.520, 1605.102 2594.861 C 1572.902 2573.222, 1540.376 2564.455, 1502 2567.072 M 2221.862 2567.055 C 2198.814 2569.088, 2178.455 2578.559, 2161.869 2594.964 C 2146.924 2609.745, 2136.695 2628.117, 2130.801 2650.765 C 2128.102 2661.136, 2127.691 2664.592, 2127.267 2680.500 C 2126.735 2700.447, 2127.892 2710.166, 2132.580 2725.136 C 2143.036 2758.519, 2170.111 2789.092, 2207 2809.171 C 2222.622 2817.674, 2247.451 2836.516, 2259.100 2848.709 C 2283.623 2874.377, 2293.879 2906.360, 2290.928 2947.969 C 2288.813 2977.802, 2281.539 2997.577, 2267.549 3011.530 C 2255.293 3023.754, 2241.615 3029, 2222 3029 C 2199.886 3029, 2183.412 3021.624, 2167 3004.374 C 2149.496 2985.978, 2134.942 2956.218, 2125.857 2920.250 C 2122.511 2907, 2122.511 2907, 2117.755 2907 C 2113 2907, 2113 2907, 2113 2911.302 C 2113 2926.304, 2122.175 3007.200, 2125.531 3021.789 C 2126.646 3026.635, 2147.093 3037.448, 2164.500 3042.397 C 2181.220 3047.150, 2191.147 3048.461, 2210 3048.406 C 2225.859 3048.360, 2228.438 3048.099, 2237.500 3045.625 C 2249.386 3042.380, 2265.692 3034.823, 2274.742 3028.364 C 2293.938 3014.667, 2309.863 2991.969, 2317.821 2966.964 C 2323.537 2949, 2324.492 2941.786, 2324.496 2916.500 C 2324.500 2896.043, 2324.242 2892.348, 2322.168 2883.081 C 2315.934 2855.235, 2303.725 2833.611, 2282.837 2813.421 C 2271.126 2802.102, 2263.244 2796.265, 2240.601 2782.140 C 2196.633 2754.715, 2181.004 2740.111, 2169.474 2715.678 C 2152.182 2679.038, 2157.345 2624.404, 2180.347 2600.630 C 2190.683 2589.947, 2203.705 2584.713, 2220 2584.692 C 2246.042 2584.659, 2264.587 2597.093, 2278.324 2623.798 C 2284.290 2635.398, 2288.333 2647.024, 2293.520 2667.500 C 2297.826 2684.500, 2297.826 2684.500, 2303.067 2684.808 C 2308.308 2685.115, 2308.308 2685.115, 2307.637 2674.808 C 2306.703 2660.477, 2300.058 2587.010, 2299.442 2584.201 C 2298.845 2581.482, 2294.646 2579.487, 2278 2574.013 C 2259.324 2567.871, 2239.900 2565.464, 2221.862 2567.055 M 1751 2583.500 C 1751 2590, 1751 2590, 1754.250 2590.004 C 1760.091 2590.011, 1775.782 2592.947, 1781.585 2595.118 C 1788.090 2597.551, 1794.326 2602.750, 1796.956 2607.932 C 1797.952 2609.894, 1799.607 2615.100, 1800.634 2619.500 C 1802.419 2627.151, 1802.500 2635.299, 1802.500 2806.500 C 1802.500 2995.788, 1802.587 2992.011, 1797.949 3004.406 C 1792.868 3017.987, 1780.482 3024.579, 1756.245 3026.600 C 1748 3027.288, 1748 3027.288, 1748 3032.644 C 1748 3038, 1748 3038, 1818 3038 C 1888 3038, 1888 3038, 1888 3032.717 C 1888 3027.435, 1888 3027.435, 1877.163 3026.283 C 1852.132 3023.622, 1841.704 3016.068, 1837.440 2997.504 C 1834.975 2986.774, 1834.081 2959.233, 1834.039 2892.747 C 1834 2831.994, 1834 2831.994, 1850.250 2832.551 C 1885.148 2833.747, 1897.073 2837.358, 1906.379 2849.546 C 1908.259 2852.008, 1919.257 2873.030, 1930.819 2896.261 C 1953.067 2940.964, 1964.785 2962.302, 1978.728 2983.500 C 1990.165 3000.889, 1994.708 3006.701, 2005.939 3018.317 C 2024.923 3037.949, 2041.028 3045, 2066.890 3045 C 2078.860 3045, 2078.082 3045.403, 2079.442 3038.500 C 2080.003 3035.651, 2079.716 3035.336, 2073.766 3032.247 C 2054.310 3022.145, 2030.285 2992.825, 1992.854 2933.500 C 1981.167 2914.978, 1973.116 2900.401, 1957.506 2869.500 C 1946.966 2848.637, 1934 2821.093, 1934 2819.567 C 1934 2819.289, 1937.487 2816.724, 1941.750 2813.867 C 1965.717 2797.804, 1981.230 2779.907, 1991.168 2756.855 C 2002.664 2730.191, 2005.948 2691.130, 1999.392 2659.049 C 1991.726 2621.540, 1969.449 2596.013, 1934.500 2584.688 C 1913.509 2577.887, 1900.562 2577.047, 1816.250 2577.021 C 1751 2577, 1751 2577, 1751 2583.500 M 31 2583.252 C 31 2588.529, 31 2588.529, 42.250 2590.802 C 60.577 2594.506, 71.934 2601.069, 76.917 2610.837 C 82.279 2621.347, 84.331 2641.497, 83.451 2675 C 82.394 2715.225, 71.519 2897.372, 67.943 2934.737 C 61.873 2998.151, 57.203 3011.382, 37.656 3020.541 C 30.884 3023.713, 18.106 3027, 12.542 3027 C 10.127 3027, 10 3027.276, 10 3032.500 C 10 3038, 10 3038, 79 3038 C 148 3038, 148 3038, 148 3032.732 C 148 3027.464, 148 3027.464, 137.250 3025.388 C 108.533 3019.841, 97.708 3009.288, 92.412 2981.678 C 89.928 2968.727, 89.431 2911.964, 91.390 2865 C 92.273 2843.825, 94.349 2789.375, 96.003 2744 C 97.658 2698.625, 99.121 2659.578, 99.255 2657.228 C 99.461 2653.636, 110.471 2682.605, 168.429 2839.228 C 206.340 2941.678, 237.800 3026.512, 238.340 3027.750 C 239.057 3029.394, 240.153 3029.995, 242.411 3029.980 C 245.500 3029.961, 245.500 3029.961, 321.417 2831.230 C 363.172 2721.929, 397.883 2631.396, 398.552 2630.046 C 399.577 2627.980, 399.861 2630.187, 400.351 2644.046 C 401.394 2673.533, 402.810 2967.165, 401.969 2979.500 C 399.703 3012.735, 392.449 3021.297, 362.784 3025.754 C 352 3027.374, 352 3027.374, 352 3032.687 C 352 3038, 352 3038, 421.500 3038 C 491 3038, 491 3038, 491 3032.642 C 491 3027.284, 491 3027.284, 481.828 3026.031 C 471.676 3024.643, 460.361 3021.755, 455.764 3019.378 C 450.307 3016.556, 444.327 3010.121, 441.679 3004.220 C 435.168 2989.711, 434.664 2978.524, 431.894 2787 C 429.949 2652.452, 429.883 2636.487, 431.235 2627.376 C 432.832 2616.621, 435.872 2608.638, 440.417 2603.264 C 445.494 2597.261, 458.653 2592.491, 477.250 2589.911 C 486 2588.697, 486 2588.697, 486 2583.348 C 486 2578, 486 2578, 444.586 2578 C 403.172 2578, 403.172 2578, 399.765 2586.750 C 397.891 2591.563, 364.252 2678.637, 325.011 2780.249 C 285.771 2881.861, 253.403 2964.736, 253.082 2964.417 C 252.762 2964.097, 219.135 2877.135, 178.355 2771.168 C 104.210 2578.500, 104.210 2578.500, 67.605 2578.238 C 31 2577.975, 31 2577.975, 31 2583.252 M 707 2585.624 C 668.726 2590.501, 639.472 2607.629, 615.834 2639 C 581.613 2684.415, 566.978 2763.225, 577.582 2845 C 585.894 2909.107, 611.974 2965.138, 648.215 2996.748 C 666.908 3013.053, 689.040 3024.174, 711.725 3028.662 C 723.575 3031.007, 746.396 3031.013, 758.210 3028.674 C 816.585 3017.121, 859.896 2967.264, 874.414 2894.910 C 881.487 2859.659, 882.248 2811.511, 876.421 2768 C 861.360 2655.544, 804.565 2588.003, 723 2585.553 C 716.125 2585.347, 708.925 2585.378, 707 2585.624 M 1489 2585.624 C 1450.726 2590.501, 1421.472 2607.629, 1397.834 2639 C 1363.613 2684.415, 1348.978 2763.225, 1359.582 2845 C 1367.894 2909.107, 1393.974 2965.138, 1430.215 2996.748 C 1448.908 3013.053, 1471.040 3024.174, 1493.725 3028.662 C 1505.575 3031.007, 1528.396 3031.013, 1540.210 3028.674 C 1598.585 3017.121, 1641.896 2967.264, 1656.414 2894.910 C 1663.487 2859.659, 1664.248 2811.511, 1658.421 2768 C 1643.360 2655.544, 1586.565 2588.003, 1505 2585.553 C 1498.125 2585.347, 1490.925 2585.378, 1489 2585.624 M 1846.264 2593.941 C 1841.734 2594.288, 1837.524 2595.076, 1836.909 2595.691 C 1834.498 2598.102, 1834.086 2615.137, 1834.044 2714.250 C 1834 2817, 1834 2817, 1854.750 2816.999 C 1888.633 2816.998, 1904.783 2814.659, 1919.500 2807.621 C 1951.669 2792.236, 1969.643 2747.305, 1965.932 2691.546 C 1962.411 2638.639, 1939.979 2607.052, 1898.500 2596.590 C 1885.507 2593.313, 1866.825 2592.365, 1846.264 2593.941" stroke="none" fill="#346c54" fill-rule="evenodd"/></svg>