<svg xmlns="http://www.w3.org/2000/svg" width="1827" height="1521" viewBox="0 0 1827 1521" version="1.1"><path d="" stroke="none" fill="#386c54" fill-rule="evenodd"/><path d="M 881 1.079 C 758.195 6.192, 649.820 22.188, 411.147 70.429 C 385.103 75.693, 362.490 80, 360.897 80 C 358.644 80, 358 80.455, 358 82.047 C 358 83.173, 356.170 90.035, 353.933 97.297 C 351.696 104.559, 349.620 113.425, 349.320 117 C 348.703 124.341, 352.278 162.622, 357.557 205.208 C 375.160 347.200, 406.018 492.057, 452.521 651 C 467.955 703.751, 470.623 710.713, 478.325 718.332 C 481.920 721.888, 499.246 732.334, 503.007 733.214 C 503.751 733.388, 505.795 729.181, 508.212 722.500 C 514.148 706.097, 513.881 704.494, 495.832 648 C 489.770 629.025, 475.893 586.275, 464.994 553 C 407.220 376.613, 392.310 320.075, 378.494 225 C 377.095 215.375, 373.051 185.450, 369.507 158.500 C 365.963 131.550, 362.194 103.650, 361.130 96.500 C 359.531 85.746, 359.424 83.262, 360.511 82.123 C 361.517 81.069, 367.783 80.554, 387.163 79.932 C 418.706 78.919, 420.793 78.743, 457.500 74 C 618.678 53.177, 747.961 47.350, 867.500 55.521 C 902.141 57.889, 920.475 59.802, 949.500 64.079 C 986.320 69.505, 1000.310 70.979, 1015.090 70.990 C 1027.097 71, 1027.954 70.861, 1033.590 68.008 C 1036.841 66.363, 1044.489 60.815, 1050.588 55.679 C 1056.686 50.543, 1062.669 45.645, 1063.883 44.795 L 1066.091 43.248 1060.515 35.374 C 1057.448 31.043, 1053.041 24.848, 1050.721 21.606 C 1042.589 10.242, 1036.294 7.421, 1010.500 3.578 C 987.618 0.169, 929.697 -0.949, 881 1.079 M 1137.488 40.835 C 1121.864 48.469, 1108.924 56.359, 1076.154 78.234 C 953.002 160.440, 835.542 265.291, 720.202 395.978 C 700.789 417.974, 696.487 423.569, 691.775 432.947 C 687.128 442.197, 686.733 448.740, 690.351 456.500 C 693.650 463.577, 694.919 464.376, 701.856 463.747 C 713.078 462.729, 716.489 460.042, 738.722 434.698 C 806.679 357.233, 858.161 301.304, 910 248.625 C 986.197 171.194, 1062.556 103.151, 1134.500 48.573 C 1143.850 41.480, 1151.928 35.299, 1152.450 34.838 C 1154.824 32.744, 1150.497 34.478, 1137.488 40.835 M 1193.222 46.068 C 1189.450 48.842, 1189.135 49.385, 1190.170 51.331 C 1194.175 58.854, 1205.509 74.835, 1228.943 106 C 1331.297 242.116, 1389.976 332.951, 1439.397 431.781 C 1466.173 485.328, 1485.322 531.301, 1502.173 582.500 C 1508.316 601.163, 1509.474 603.850, 1512.587 606.645 C 1521.068 614.260, 1538.501 616.962, 1548.231 612.170 C 1563.695 604.554, 1572.233 588.038, 1570.549 569 C 1569.193 553.673, 1565.511 545.573, 1538.422 498.329 C 1498.893 429.388, 1483.600 407.829, 1376.454 270 C 1324.969 203.771, 1198.975 43.550, 1198.134 43.238 C 1197.745 43.094, 1195.535 44.367, 1193.222 46.068 M 284.147 185.038 C 274.687 186.978, 268.980 192.094, 249.963 215.684 C 228.330 242.518, 223.917 250.587, 199.209 308.500 C 154.322 413.711, 17.597 740.931, 18.251 741.584 C 18.448 741.781, 21.628 743.079, 25.319 744.468 L 32.028 746.993 34.381 741.747 C 51.702 703.128, 86.365 628.676, 105.962 588 C 172.639 449.604, 236.588 343.477, 306.017 256 C 311.910 248.575, 317.466 241.061, 318.364 239.303 C 322.679 230.854, 322.529 212.505, 318.062 202.406 C 312.751 190.400, 297.095 182.383, 284.147 185.038 M 1004.775 489.693 L 999.051 490.098 997.966 494.299 C 997.369 496.610, 996.669 499.236, 996.409 500.136 C 995.875 501.988, 998.637 505.674, 1007.423 514.838 C 1021.599 529.622, 1037.769 539.128, 1056.976 543.969 C 1061.114 545.012, 1082.950 548.840, 1105.500 552.475 C 1230.187 572.574, 1285.754 582.765, 1346 596.583 C 1436.122 617.253, 1518.169 644.774, 1585.412 676.888 C 1593.613 680.805, 1600.506 683.827, 1600.730 683.603 C 1602.085 682.248, 1580.146 669.202, 1559 658.789 C 1404.327 582.622, 1248.651 530.286, 1070 494.394 C 1047.706 489.915, 1045.577 489.663, 1028.500 489.480 C 1018.600 489.374, 1007.924 489.470, 1004.775 489.693 M 797.500 641.059 C 750.470 647.393, 712.675 683.262, 701.236 732.416 C 699.030 741.899, 698.658 745.811, 698.667 759.500 C 698.678 778.034, 700.814 790.398, 706.603 805.434 C 712.632 821.092, 720.068 832.418, 732.761 845.276 C 746.487 859.181, 764.395 869.532, 783.723 874.732 C 792.616 877.124, 795.218 877.367, 812.500 877.412 C 829.249 877.456, 832.487 877.193, 839.832 875.189 C 860.540 869.539, 877.960 859.312, 893.593 843.627 C 909.197 827.971, 918.773 812.120, 924.485 792.495 C 937.949 746.229, 918.904 694.360, 876.964 663.068 C 853.867 645.836, 823.822 637.514, 797.500 641.059 M 1629.704 707.683 C 1629.431 708.133, 1625.061 717.725, 1619.994 729 C 1563.289 855.163, 1509.925 964.661, 1466.235 1044.500 C 1421.356 1126.511, 1373.845 1201.811, 1326.477 1266 C 1319.780 1275.075, 1313.783 1284.030, 1313.150 1285.899 C 1311.877 1289.661, 1311.677 1301.469, 1312.640 1316.010 L 1313.270 1325.520 1329.420 1325.814 C 1355.649 1326.290, 1365.169 1323.787, 1375.173 1313.784 C 1385.367 1303.590, 1387.698 1299.253, 1431.233 1209.500 C 1483.631 1101.475, 1496.600 1069.196, 1606.397 773.531 C 1627.652 716.296, 1632.089 703.761, 1629.704 707.683 M 1128.620 797.250 C 1127.847 799.038, 1125.651 803.880, 1123.741 808.011 C 1118.314 819.749, 1117.738 823.937, 1120.018 835.085 C 1122.511 847.275, 1126.258 859.484, 1133.957 880.500 C 1208.153 1083.026, 1249.864 1240.098, 1268.985 1388.973 C 1273.634 1425.167, 1272.918 1432.784, 1264.368 1438.092 C 1261.008 1440.178, 1259.113 1440.524, 1249.935 1440.723 C 1239.829 1440.942, 1212.047 1443.181, 1110.500 1451.963 C 1023.167 1459.514, 969.663 1463.046, 911.500 1465.099 C 856.502 1467.039, 799.822 1464.786, 695 1456.490 C 657.183 1453.497, 618.455 1451.001, 610.108 1451.017 C 586.909 1451.064, 574.045 1458.611, 571.549 1473.637 C 570.092 1482.411, 575.161 1491.785, 586.359 1501.026 C 604.710 1516.170, 627.643 1522.221, 660.500 1520.587 C 680.713 1519.582, 836.441 1501.359, 1153 1462.957 C 1194.165 1457.963, 1228.904 1453.297, 1230.639 1452.529 C 1232.365 1451.764, 1236.092 1449.082, 1238.922 1446.569 C 1244.658 1441.475, 1245.008 1441.386, 1251 1443.500 C 1257.070 1445.642, 1266.748 1445.451, 1270.580 1443.114 C 1277.806 1438.708, 1279.159 1427.849, 1277.068 1391.044 C 1269.730 1261.879, 1247.011 1121.149, 1209.337 971.500 C 1196.794 921.677, 1188.097 893.710, 1169.182 842.383 C 1158.236 812.682, 1157.296 810.533, 1153.831 807.297 C 1151.746 805.350, 1131.867 794, 1130.542 794 C 1130.259 794, 1129.394 795.462, 1128.620 797.250 M 1 811.896 C 1 812.389, 4.520 816.101, 8.823 820.146 C 16.540 827.401, 17.370 827.864, 70.573 854.562 C 145.346 892.085, 169.571 903.150, 232.500 928.523 C 350.584 976.133, 454.098 1008.254, 553 1027.975 C 593.371 1036.026, 590.273 1035.863, 622.993 1031.651 L 632.485 1030.430 633.105 1025.965 C 633.445 1023.509, 634.028 1018.735, 634.399 1015.357 L 635.075 1009.213 608.788 1000.672 C 562.029 985.481, 554.146 983.383, 469 963.480 C 355.428 936.932, 335.756 932.257, 301 923.559 C 180.402 893.379, 155.258 884.550, 63 839.991 C 31.853 824.947, 2.226 811, 1.418 811 C 1.188 811, 1 811.403, 1 811.896 M 76.114 910.225 C 70.402 918.076, 64.109 927.875, 62.130 932 C 58.928 938.675, 58.531 940.380, 58.524 947.500 C 58.512 960.199, 62.391 969.403, 81.472 1001.953 C 148.129 1115.659, 232.171 1230.893, 340.411 1357 C 379.129 1402.109, 442.852 1473.481, 443.674 1472.659 C 444.569 1471.764, 434.272 1456.361, 419.502 1436.500 C 350.800 1344.123, 293.478 1260.857, 254.279 1196.500 C 198.772 1105.368, 157.576 1019.847, 130.098 938.707 C 122.930 917.541, 122.052 915.781, 116.714 911.883 C 113.065 909.218, 90.309 897.028, 87.499 896.233 C 86.949 896.077, 81.825 902.373, 76.114 910.225 M 916.420 1047.285 C 908.002 1052.201, 892.018 1069.572, 855.952 1113 C 712.975 1285.161, 605.985 1391.932, 488.315 1479.882 C 476.114 1489.002, 466.293 1496.626, 466.491 1496.825 C 467.922 1498.255, 480.549 1492.473, 493.896 1484.274 C 642.318 1393.105, 782.648 1267.320, 907.341 1113.681 C 928.931 1087.080, 931.511 1083.597, 935.261 1076 C 937.975 1070.503, 938.463 1068.420, 938.422 1062.500 C 938.369 1054.911, 936.605 1050.238, 932.783 1047.561 C 930.089 1045.674, 919.485 1045.496, 916.420 1047.285" stroke="none" fill="#346c54" fill-rule="evenodd"/></svg>